<?xml version="1.0" encoding="utf-8"?><svg xml:space="preserve" viewBox="0 0 100 100" y="0" x="0" xmlns="http://www.w3.org/2000/svg" id="Layer_1" version="1.1" width="200px" height="200px" xmlns:xlink="http://www.w3.org/1999/xlink" style="width:100%;height:100%;background-color:rgb(255, 255, 255);animation-play-state:paused" ><g class="ldl-scale" style="transform-origin:50% 50% 0px;transform:rotate(0deg) scale(0.8);animation-play-state:paused" ><path fill="#a8b980" d="M40.5 90.4c-6.2-1.4-12.1-4.2-17.1-8.2l9.4-11.8c3.2 2.6 7 4.4 11 5.3l-3.3 14.7z" id="XMLID_390_" style="fill:rgb(168, 185, 128);animation-play-state:paused" ></path>
<path fill="#829985" d="M59.4 90.3L56 75.6c4-.9 7.8-2.7 11-5.3l9.4 11.8c-4.9 4-10.8 6.8-17 8.2z" id="XMLID_391_" style="fill:rgb(130, 153, 133);animation-play-state:paused" ></path>
<path fill="#f0af6b" d="M11.7 67.4c-2.8-5.8-4.2-12-4.2-18.4h15.1c0 4.2.9 8.2 2.7 11.9l-13.6 6.5z" id="XMLID_402_" style="fill:rgb(240, 175, 107);animation-play-state:paused" ></path>
<path fill="#798aae" d="M88.3 67.3l-13.6-6.6c1.8-3.7 2.7-7.7 2.7-11.9v-.1h15.1v.1c0 6.6-1.5 12.8-4.2 18.5z" id="XMLID_403_" style="fill:rgb(121, 138, 174);animation-play-state:paused" ></path>
<path fill="#ea7c60" d="M25.2 37.1l-13.6-6.5c2.7-5.7 6.8-10.8 11.8-14.8l9.5 11.8c-3.3 2.5-5.9 5.8-7.7 9.5z" id="XMLID_404_" style="fill:rgb(234, 124, 96);animation-play-state:paused" ></path>
<path fill="#8672a7" d="M74.6 36.9c-1.8-3.7-4.4-7-7.6-9.5l9.4-11.8c5 3.9 9.1 9 11.8 14.7l-13.6 6.6z" id="XMLID_405_" style="fill:rgb(134, 114, 167);animation-play-state:paused" ></path>
<path fill="#d65a62" d="M43.8 22.2L40.4 7.5c3.1-.7 6.3-1.1 9.6-1.1 3.1 0 6.3.3 9.3 1L56 22.2c-2-.4-4-.7-6-.7-2.1 0-4.2.3-6.2.7z" id="XMLID_406_" style="fill:rgb(214, 90, 98);animation-play-state:paused" ></path>
<metadata xmlns:d="https://loading.io/stock/" style="animation-play-state:paused" ><d:name style="animation-play-state:paused" >wheel</d:name>


<d:tags style="animation-play-state:paused" >curve,circle,rotate,dash,spinner,preloader,loading icon,wheel</d:tags>


<d:license style="animation-play-state:paused" >by</d:license>


<d:slug style="animation-play-state:paused" >pd8fa5</d:slug></metadata></g><!-- generated by https://loading.io/ --></svg>